# xmcd CD database file generated by OrangeCD 4.2
#
# Track frame offsets:
#	150
#	9882
#	21158
#	27747
#	43231
#	54663
#	70804
#	88633
#	102442
#	120082
#	121761
#	135258
#	145956
#	160638
#	176371
#	186509
#	189710
#	196129
#	212293
#
# Disc length: 2958 seconds
#
# Revision: 0
# Processed by: cddbd v1.5PL3 Copyright (c) Steve Scherf et al.
# Submitted via: OrangeCD 4.2
#
DISCID=fb0b8c13
DTITLE=Cash, Johnny (Johnny Cash) and The Carter Family - Wembley Arena 31 March 
DTITLE=1986
DYEAR=1986
DGENRE=Country
TTITLE0=Johnny Cash w/ June - If I Were A Carpenter
TTITLE1=Johnny Cash w/ June - Jackson
TTITLE2=June, Helen, Anita - Carter Family
TTITLE3=Johnny Cash - June Carter Introduction
TTITLE4=June Carter - Wabash Cannonball
TTITLE5=June Carter - San Antoinio Rose
TTITLE6=Carter Family w/Carlene Carter - Elbow Room
TTITLE7=Anita Carter - I'll Be All Smiles Tonight
TTITLE8=Carter Family - Foggy Mountain Top
TTITLE9=Carter Family - Will The Circle Be Unbroken
TTITLE10=Johnny Cash Band - Wildwood Flower Jam
TTITLE11=Johnny Cash w/ June - Wreck Of Old '97
TTITLE12=Johnny Cash - A Thing Called Love
TTITLE13=Johnny Cash - The Ballad Of Ira Hayes
TTITLE14=Johnny Cash - Were You There When They Crucified My Lord
TTITLE15=Johnny Cash w/John Schnieder - Daddy Sang Bass
TTITLE16=Johnny Cash Band - Outro
TTITLE17=Johnny Cash - Casey Jones
TTITLE18=Johnny Cash - Orange Blossom
EXTD=
EXTT0=
EXTT1=
EXTT2=
EXTT3=
EXTT4=
EXTT5=
EXTT6=
EXTT7=
EXTT8=
EXTT9=
EXTT10=
EXTT11=
EXTT12=
EXTT13=
EXTT14=
EXTT15=
EXTT16=
EXTT17=
EXTT18=
PLAYORDER=
